<mxfile host="app.diagrams.net" modified="2023-02-17T09:47:10.496Z" agent="5.0 (Windows NT 10.0; Win64; x64) AppleWebKit/537.36 (KHTML, like Gecko) Chrome/109.0.0.0 Safari/537.36" etag="4re1TgN2D2uy599x9CUv" version="20.8.20" type="github">
  <diagram id="C5RBs43oDa-KdzZeNtuy" name="Page-1">
    <mxGraphModel dx="1050" dy="573" grid="1" gridSize="10" guides="1" tooltips="1" connect="1" arrows="1" fold="1" page="1" pageScale="1" pageWidth="827" pageHeight="1169" math="0" shadow="0">
      <root>
        <mxCell id="WIyWlLk6GJQsqaUBKTNV-0" />
        <mxCell id="WIyWlLk6GJQsqaUBKTNV-1" parent="WIyWlLk6GJQsqaUBKTNV-0" />
        <mxCell id="R1fVyUrZymJGSxZOei_f-49" value="" style="ellipse;whiteSpace=wrap;html=1;strokeColor=#0B2666;fontSize=18;" vertex="1" parent="WIyWlLk6GJQsqaUBKTNV-1">
          <mxGeometry x="162" y="110" width="120" height="80" as="geometry" />
        </mxCell>
        <mxCell id="R1fVyUrZymJGSxZOei_f-38" value="" style="rounded=1;whiteSpace=wrap;html=1;fontSize=18;" vertex="1" parent="WIyWlLk6GJQsqaUBKTNV-1">
          <mxGeometry x="162" y="375" width="120" height="60" as="geometry" />
        </mxCell>
        <mxCell id="R1fVyUrZymJGSxZOei_f-48" value="" style="ellipse;whiteSpace=wrap;html=1;strokeColor=#0B2666;fontSize=18;" vertex="1" parent="WIyWlLk6GJQsqaUBKTNV-1">
          <mxGeometry x="162" y="105" width="120" height="80" as="geometry" />
        </mxCell>
        <mxCell id="R1fVyUrZymJGSxZOei_f-19" value="" style="edgeStyle=orthogonalEdgeStyle;rounded=0;orthogonalLoop=1;jettySize=auto;html=1;fontSize=18;" edge="1" parent="WIyWlLk6GJQsqaUBKTNV-1" source="R1fVyUrZymJGSxZOei_f-0" target="R1fVyUrZymJGSxZOei_f-13">
          <mxGeometry relative="1" as="geometry" />
        </mxCell>
        <mxCell id="R1fVyUrZymJGSxZOei_f-26" value="" style="edgeStyle=orthogonalEdgeStyle;rounded=0;orthogonalLoop=1;jettySize=auto;html=1;fontSize=18;" edge="1" parent="WIyWlLk6GJQsqaUBKTNV-1" source="R1fVyUrZymJGSxZOei_f-0" target="R1fVyUrZymJGSxZOei_f-6">
          <mxGeometry relative="1" as="geometry" />
        </mxCell>
        <mxCell id="R1fVyUrZymJGSxZOei_f-0" value="" style="whiteSpace=wrap;html=1;aspect=fixed;fillColor=#f5f5f5;fontColor=#333333;strokeColor=#666666;" vertex="1" parent="WIyWlLk6GJQsqaUBKTNV-1">
          <mxGeometry x="147" y="50" width="150" height="150" as="geometry" />
        </mxCell>
        <mxCell id="R1fVyUrZymJGSxZOei_f-1" value="&lt;font style=&quot;font-size: 18px;&quot;&gt;Login Page&lt;/font&gt;" style="text;html=1;strokeColor=none;fillColor=none;align=center;verticalAlign=middle;whiteSpace=wrap;rounded=0;fontStyle=1" vertex="1" parent="WIyWlLk6GJQsqaUBKTNV-1">
          <mxGeometry x="172" y="40" width="100" height="70" as="geometry" />
        </mxCell>
        <mxCell id="R1fVyUrZymJGSxZOei_f-10" style="edgeStyle=orthogonalEdgeStyle;rounded=0;orthogonalLoop=1;jettySize=auto;html=1;entryX=0;entryY=0.5;entryDx=0;entryDy=0;fontSize=18;" edge="1" parent="WIyWlLk6GJQsqaUBKTNV-1" source="R1fVyUrZymJGSxZOei_f-6" target="R1fVyUrZymJGSxZOei_f-9">
          <mxGeometry relative="1" as="geometry" />
        </mxCell>
        <mxCell id="R1fVyUrZymJGSxZOei_f-6" value="" style="whiteSpace=wrap;html=1;aspect=fixed;fontSize=18;fillColor=#f5f5f5;fontColor=#333333;strokeColor=#666666;" vertex="1" parent="WIyWlLk6GJQsqaUBKTNV-1">
          <mxGeometry x="407" y="50" width="150" height="150" as="geometry" />
        </mxCell>
        <mxCell id="R1fVyUrZymJGSxZOei_f-8" value="DashBoard" style="text;html=1;strokeColor=none;fillColor=none;align=center;verticalAlign=middle;whiteSpace=wrap;rounded=0;fontSize=18;fontStyle=1" vertex="1" parent="WIyWlLk6GJQsqaUBKTNV-1">
          <mxGeometry x="457" y="60" width="60" height="30" as="geometry" />
        </mxCell>
        <mxCell id="R1fVyUrZymJGSxZOei_f-9" value="" style="whiteSpace=wrap;html=1;aspect=fixed;fontSize=18;fillColor=#f5f5f5;fontColor=#333333;strokeColor=#666666;" vertex="1" parent="WIyWlLk6GJQsqaUBKTNV-1">
          <mxGeometry x="657" y="40" width="170" height="170" as="geometry" />
        </mxCell>
        <mxCell id="R1fVyUrZymJGSxZOei_f-11" value="History of Emails" style="text;html=1;strokeColor=none;fillColor=none;align=center;verticalAlign=middle;whiteSpace=wrap;rounded=0;fontSize=18;fontStyle=1" vertex="1" parent="WIyWlLk6GJQsqaUBKTNV-1">
          <mxGeometry x="664.5" y="60" width="155" height="30" as="geometry" />
        </mxCell>
        <mxCell id="R1fVyUrZymJGSxZOei_f-13" value="" style="whiteSpace=wrap;html=1;aspect=fixed;fontSize=18;fillColor=#f5f5f5;fontColor=#333333;strokeColor=#0B2666;" vertex="1" parent="WIyWlLk6GJQsqaUBKTNV-1">
          <mxGeometry x="147" y="310" width="150" height="150" as="geometry" />
        </mxCell>
        <mxCell id="R1fVyUrZymJGSxZOei_f-14" value="SignIn" style="text;html=1;strokeColor=none;fillColor=none;align=center;verticalAlign=middle;whiteSpace=wrap;rounded=0;fontSize=18;fontStyle=1" vertex="1" parent="WIyWlLk6GJQsqaUBKTNV-1">
          <mxGeometry x="197" y="320" width="60" height="30" as="geometry" />
        </mxCell>
        <mxCell id="R1fVyUrZymJGSxZOei_f-21" value="" style="rounded=1;whiteSpace=wrap;html=1;fontSize=18;" vertex="1" parent="WIyWlLk6GJQsqaUBKTNV-1">
          <mxGeometry x="137" y="230" width="85" height="30" as="geometry" />
        </mxCell>
        <mxCell id="R1fVyUrZymJGSxZOei_f-23" value="NewUser" style="text;html=1;strokeColor=none;fillColor=none;align=center;verticalAlign=middle;whiteSpace=wrap;rounded=0;fontSize=18;" vertex="1" parent="WIyWlLk6GJQsqaUBKTNV-1">
          <mxGeometry x="149.5" y="230" width="60" height="30" as="geometry" />
        </mxCell>
        <mxCell id="R1fVyUrZymJGSxZOei_f-30" value="ToEmails" style="text;html=1;strokeColor=none;fillColor=none;align=center;verticalAlign=middle;whiteSpace=wrap;rounded=0;fontSize=18;" vertex="1" parent="WIyWlLk6GJQsqaUBKTNV-1">
          <mxGeometry x="452" y="130" width="60" height="30" as="geometry" />
        </mxCell>
        <mxCell id="R1fVyUrZymJGSxZOei_f-31" value="Email&lt;br&gt;Password" style="text;html=1;strokeColor=none;fillColor=none;align=center;verticalAlign=middle;whiteSpace=wrap;rounded=0;fontSize=18;" vertex="1" parent="WIyWlLk6GJQsqaUBKTNV-1">
          <mxGeometry x="192" y="130" width="60" height="30" as="geometry" />
        </mxCell>
        <mxCell id="R1fVyUrZymJGSxZOei_f-33" style="edgeStyle=orthogonalEdgeStyle;rounded=0;orthogonalLoop=1;jettySize=auto;html=1;exitX=0.5;exitY=1;exitDx=0;exitDy=0;fontSize=18;" edge="1" parent="WIyWlLk6GJQsqaUBKTNV-1" source="R1fVyUrZymJGSxZOei_f-31" target="R1fVyUrZymJGSxZOei_f-31">
          <mxGeometry relative="1" as="geometry" />
        </mxCell>
        <mxCell id="R1fVyUrZymJGSxZOei_f-34" value="Name&lt;br&gt;Email&lt;br&gt;Subject&lt;br&gt;Body" style="text;html=1;strokeColor=none;fillColor=none;align=center;verticalAlign=middle;whiteSpace=wrap;rounded=0;fontSize=18;" vertex="1" parent="WIyWlLk6GJQsqaUBKTNV-1">
          <mxGeometry x="712" y="130" width="60" height="30" as="geometry" />
        </mxCell>
        <mxCell id="R1fVyUrZymJGSxZOei_f-36" value="" style="edgeStyle=orthogonalEdgeStyle;rounded=0;orthogonalLoop=1;jettySize=auto;html=1;fontSize=18;" edge="1" parent="WIyWlLk6GJQsqaUBKTNV-1" source="R1fVyUrZymJGSxZOei_f-35" target="R1fVyUrZymJGSxZOei_f-0">
          <mxGeometry relative="1" as="geometry" />
        </mxCell>
        <mxCell id="R1fVyUrZymJGSxZOei_f-35" value="&lt;b&gt;User&lt;/b&gt;" style="shape=umlActor;verticalLabelPosition=bottom;verticalAlign=top;html=1;outlineConnect=0;fontSize=18;" vertex="1" parent="WIyWlLk6GJQsqaUBKTNV-1">
          <mxGeometry x="10" y="90" width="30" height="60" as="geometry" />
        </mxCell>
        <mxCell id="R1fVyUrZymJGSxZOei_f-27" value="Name&lt;br&gt;Email&lt;br&gt;Password" style="text;html=1;strokeColor=none;fillColor=none;align=center;verticalAlign=middle;whiteSpace=wrap;rounded=0;fontSize=18;" vertex="1" parent="WIyWlLk6GJQsqaUBKTNV-1">
          <mxGeometry x="192" y="390" width="60" height="30" as="geometry" />
        </mxCell>
        <mxCell id="R1fVyUrZymJGSxZOei_f-41" value="" style="endArrow=classic;html=1;rounded=0;fontSize=18;entryX=1;entryY=0.75;entryDx=0;entryDy=0;" edge="1" parent="WIyWlLk6GJQsqaUBKTNV-1" target="R1fVyUrZymJGSxZOei_f-27">
          <mxGeometry width="50" height="50" relative="1" as="geometry">
            <mxPoint x="392" y="410" as="sourcePoint" />
            <mxPoint x="284" y="405" as="targetPoint" />
          </mxGeometry>
        </mxCell>
        <mxCell id="R1fVyUrZymJGSxZOei_f-44" value="" style="ellipse;whiteSpace=wrap;html=1;strokeColor=#0B2666;fontSize=18;" vertex="1" parent="WIyWlLk6GJQsqaUBKTNV-1">
          <mxGeometry x="392" y="375" width="120" height="80" as="geometry" />
        </mxCell>
        <mxCell id="R1fVyUrZymJGSxZOei_f-42" value="Userinput" style="text;html=1;strokeColor=none;fillColor=none;align=center;verticalAlign=middle;whiteSpace=wrap;rounded=0;fontSize=18;" vertex="1" parent="WIyWlLk6GJQsqaUBKTNV-1">
          <mxGeometry x="422" y="400" width="60" height="30" as="geometry" />
        </mxCell>
        <mxCell id="R1fVyUrZymJGSxZOei_f-45" value="" style="endArrow=classic;html=1;rounded=0;fontSize=18;" edge="1" parent="WIyWlLk6GJQsqaUBKTNV-1" target="R1fVyUrZymJGSxZOei_f-48">
          <mxGeometry width="50" height="50" relative="1" as="geometry">
            <mxPoint x="338" y="265" as="sourcePoint" />
            <mxPoint x="250" y="170" as="targetPoint" />
          </mxGeometry>
        </mxCell>
        <mxCell id="R1fVyUrZymJGSxZOei_f-46" value="" style="ellipse;whiteSpace=wrap;html=1;strokeColor=#0B2666;fontSize=18;" vertex="1" parent="WIyWlLk6GJQsqaUBKTNV-1">
          <mxGeometry x="338" y="230" width="120" height="80" as="geometry" />
        </mxCell>
        <mxCell id="R1fVyUrZymJGSxZOei_f-47" value="Userinput" style="text;html=1;strokeColor=none;fillColor=none;align=center;verticalAlign=middle;whiteSpace=wrap;rounded=0;fontSize=18;" vertex="1" parent="WIyWlLk6GJQsqaUBKTNV-1">
          <mxGeometry x="368" y="255" width="60" height="30" as="geometry" />
        </mxCell>
        <mxCell id="R1fVyUrZymJGSxZOei_f-50" value="" style="endArrow=classic;html=1;rounded=0;fontSize=18;entryX=0.5;entryY=1;entryDx=0;entryDy=0;" edge="1" parent="WIyWlLk6GJQsqaUBKTNV-1" target="R1fVyUrZymJGSxZOei_f-30">
          <mxGeometry width="50" height="50" relative="1" as="geometry">
            <mxPoint x="544.5" y="265" as="sourcePoint" />
            <mxPoint x="436.5" y="260" as="targetPoint" />
          </mxGeometry>
        </mxCell>
        <mxCell id="R1fVyUrZymJGSxZOei_f-51" value="" style="ellipse;whiteSpace=wrap;html=1;strokeColor=#0B2666;fontSize=18;" vertex="1" parent="WIyWlLk6GJQsqaUBKTNV-1">
          <mxGeometry x="544.5" y="230" width="120" height="80" as="geometry" />
        </mxCell>
        <mxCell id="R1fVyUrZymJGSxZOei_f-52" value="Userinput" style="text;html=1;strokeColor=none;fillColor=none;align=center;verticalAlign=middle;whiteSpace=wrap;rounded=0;fontSize=18;" vertex="1" parent="WIyWlLk6GJQsqaUBKTNV-1">
          <mxGeometry x="574.5" y="255" width="60" height="30" as="geometry" />
        </mxCell>
      </root>
    </mxGraphModel>
  </diagram>
</mxfile>
